<?xml version="1.0" encoding="UTF-8" standalone="no"?>
<!-- Created with Inkscape (http://www.inkscape.org/) -->

<svg
   xmlns:dc="http://purl.org/dc/elements/1.1/"
   xmlns:cc="http://creativecommons.org/ns#"
   xmlns:rdf="http://www.w3.org/1999/02/22-rdf-syntax-ns#"
   xmlns:svg="http://www.w3.org/2000/svg"
   xmlns="http://www.w3.org/2000/svg"
   xmlns:xlink="http://www.w3.org/1999/xlink"
   xmlns:sodipodi="http://sodipodi.sourceforge.net/DTD/sodipodi-0.dtd"
   xmlns:inkscape="http://www.inkscape.org/namespaces/inkscape"
   width="1020"
   height="1431.4286"
   id="svg2"
   version="1.1"
   inkscape:version="0.48.5 r10040"
   sodipodi:docname="BC_Publicidad.svg">
  <defs
     id="defs4">
    <linearGradient
       inkscape:collect="always"
       id="linearGradient3069">
      <stop
         style="stop-color:#999999;stop-opacity:1;"
         offset="0"
         id="stop3071" />
      <stop
         style="stop-color:#999999;stop-opacity:0;"
         offset="1"
         id="stop3073" />
    </linearGradient>
    <linearGradient
       inkscape:collect="always"
       xlink:href="#linearGradient3069"
       id="linearGradient3131"
       gradientUnits="userSpaceOnUse"
       x1="-55.639805"
       y1="-154.50504"
       x2="-69.37738"
       y2="-154.50504" />
    <linearGradient
       inkscape:collect="always"
       xlink:href="#linearGradient3069"
       id="linearGradient3133"
       gradientUnits="userSpaceOnUse"
       x1="-55.639805"
       y1="-154.50504"
       x2="-69.37738"
       y2="-154.50504" />
    <linearGradient
       inkscape:collect="always"
       xlink:href="#linearGradient3069"
       id="linearGradient3135"
       gradientUnits="userSpaceOnUse"
       x1="-55.639805"
       y1="-154.50504"
       x2="-69.37738"
       y2="-154.50504" />
    <linearGradient
       inkscape:collect="always"
       xlink:href="#linearGradient3069"
       id="linearGradient3137"
       gradientUnits="userSpaceOnUse"
       x1="-55.639805"
       y1="-154.50504"
       x2="-69.37738"
       y2="-154.50504" />
  </defs>
  <sodipodi:namedview
     id="base"
     pagecolor="#ffffff"
     bordercolor="#666666"
     borderopacity="1.0"
     inkscape:pageopacity="0.0"
     inkscape:pageshadow="2"
     inkscape:zoom="0.175"
     inkscape:cx="753.30454"
     inkscape:cy="899.11171"
     inkscape:document-units="px"
     inkscape:current-layer="layer1"
     showgrid="false"
     inkscape:window-width="1366"
     inkscape:window-height="702"
     inkscape:window-x="0"
     inkscape:window-y="27"
     inkscape:window-maximized="1"
     showguides="false"
     inkscape:guide-bbox="true"
     fit-margin-top="30"
     fit-margin-left="30"
     fit-margin-right="30"
     fit-margin-bottom="30" />
  <metadata
     id="metadata7">
    <rdf:RDF>
      <cc:Work
         rdf:about="">
        <dc:format>image/svg+xml</dc:format>
        <dc:type
           rdf:resource="http://purl.org/dc/dcmitype/StillImage" />
        <dc:title></dc:title>
      </cc:Work>
    </rdf:RDF>
  </metadata>
  <g
     inkscape:label="Capa 1"
     inkscape:groupmode="layer"
     id="layer1"
     transform="translate(1086.6927,345.81453)">
    <g
       id="g3158"
       transform="matrix(1,0,0,0.5208057,7.4265137,601.00209)" />
    <g
       transform="matrix(1,0,0,0.5208057,7.4265137,741.00209)"
       id="g3227" />
    <g
       id="g3059"
       transform="translate(1923.3305,117.1777)">
      <rect
         transform="scale(-1,-1)"
         y="-1026.1812"
         x="-722.04724"
         height="1000"
         width="700"
         id="rect2985"
         style="fill:#333333;fill-rule:evenodd;stroke:none" />
      <rect
         style="fill:#b3b3b3;fill-rule:evenodd;stroke:none"
         id="rect2987"
         width="668.57141"
         height="287.14285"
         x="-706.33295"
         y="-331.89545"
         transform="scale(-1,-1)" />
      <rect
         transform="scale(-1,-1)"
         y="-631.89545"
         x="-706.33295"
         height="287.14285"
         width="668.57141"
         id="rect2989"
         style="fill:#b3b3b3;fill-rule:evenodd;stroke:none" />
      <rect
         style="fill:#b3b3b3;fill-rule:evenodd;stroke:none"
         id="rect2991"
         width="668.57141"
         height="67.142853"
         x="-706.33295"
         y="-1011.8954"
         transform="scale(-1,-1)" />
      <rect
         style="fill:#b3b3b3;fill-rule:evenodd;stroke:none"
         id="rect3012"
         width="668.57141"
         height="287.14285"
         x="-706.33295"
         y="-931.89545"
         transform="scale(-1,-1)" />
      <g
         id="g3077">
        <rect
           style="fill:url(#linearGradient3135);fill-opacity:1;fill-rule:evenodd;stroke:none"
           id="rect3053"
           width="32.142838"
           height="287.14285"
           x="-69.904381"
           y="-331.89545"
           transform="scale(-1,-1)" />
        <g
           id="g3035"
           transform="translate(-0.88132424,0)">
          <path
             transform="matrix(0.6464466,0,0,0.6464466,2.53681,73.207097)"
             d="m 99.285715,178.07646 c 0,10.25672 -8.314712,18.57143 -18.571428,18.57143 -10.256717,0 -18.571428,-8.31471 -18.571428,-18.57143 0,-10.25671 8.314711,-18.57143 18.571428,-18.57143 10.256716,0 18.571428,8.31472 18.571428,18.57143 z"
             sodipodi:ry="18.571428"
             sodipodi:rx="18.571428"
             sodipodi:cy="178.07646"
             sodipodi:cx="80.714287"
             id="path3031"
             style="fill:#333333;stroke:none"
             sodipodi:type="arc" />
          <path
             inkscape:transform-center-x="1.7591739"
             transform="matrix(0,-0.33091648,0.33091648,0,29.454825,212.67002)"
             d="m 91.986809,92.280022 -18.415382,-10e-7 -18.415383,10e-7 9.207692,-15.948188 9.20769,-15.94819 9.207691,15.948189 z"
             inkscape:randomized="0"
             inkscape:rounded="0"
             inkscape:flatsided="false"
             sodipodi:arg2="1.5707963"
             sodipodi:arg1="0.52359878"
             sodipodi:r2="10.632125"
             sodipodi:r1="21.264252"
             sodipodi:cy="81.647896"
             sodipodi:cx="73.571426"
             sodipodi:sides="3"
             id="path3033"
             style="fill:#cccccc;stroke:none"
             sodipodi:type="star" />
        </g>
      </g>
      <g
         transform="matrix(-1,0,0,-1,744.09449,376.64804)"
         id="g3083">
        <rect
           transform="scale(-1,-1)"
           y="-331.89545"
           x="-69.904381"
           height="287.14285"
           width="32.142838"
           id="rect3085"
           style="fill:url(#linearGradient3137);fill-opacity:1;fill-rule:evenodd;stroke:none" />
        <g
           transform="translate(-0.88132424,0)"
           id="g3087">
          <path
             sodipodi:type="arc"
             style="fill:#333333;stroke:none"
             id="path3089"
             sodipodi:cx="80.714287"
             sodipodi:cy="178.07646"
             sodipodi:rx="18.571428"
             sodipodi:ry="18.571428"
             d="m 99.285715,178.07646 c 0,10.25672 -8.314712,18.57143 -18.571428,18.57143 -10.256717,0 -18.571428,-8.31471 -18.571428,-18.57143 0,-10.25671 8.314711,-18.57143 18.571428,-18.57143 10.256716,0 18.571428,8.31472 18.571428,18.57143 z"
             transform="matrix(0.6464466,0,0,0.6464466,2.53681,73.207097)" />
          <path
             sodipodi:type="star"
             style="fill:#cccccc;stroke:none"
             id="path3091"
             sodipodi:sides="3"
             sodipodi:cx="73.571426"
             sodipodi:cy="81.647896"
             sodipodi:r1="21.264252"
             sodipodi:r2="10.632125"
             sodipodi:arg1="0.52359878"
             sodipodi:arg2="1.5707963"
             inkscape:flatsided="false"
             inkscape:rounded="0"
             inkscape:randomized="0"
             d="m 91.986809,92.280022 -18.415382,-10e-7 -18.415383,10e-7 9.207692,-15.948188 9.20769,-15.94819 9.207691,15.948189 z"
             transform="matrix(0,-0.33091648,0.33091648,0,29.454825,212.67002)"
             inkscape:transform-center-x="1.7591739" />
        </g>
      </g>
      <rect
         transform="scale(-1,-1)"
         y="-331.89545"
         x="-706.33295"
         height="19.285707"
         width="668.57141"
         id="rect3029"
         style="fill:#333333;fill-rule:evenodd;stroke:none" />
      <g
         transform="matrix(1,0,0.47319042,0.73671702,-152.73939,84.843619)"
         id="g3109">
        <rect
           transform="matrix(-1,0,0.54197698,-0.84039333,0,0)"
           y="-393.72668"
           x="-787.55066"
           height="20.54443"
           width="66.015404"
           id="rect3095"
           style="fill:#b3b3b3;fill-rule:evenodd;stroke:none" />
        <rect
           style="fill:#b3b3b3;fill-rule:evenodd;stroke:none"
           id="rect3097"
           width="66.015404"
           height="20.54443"
           x="-700.34082"
           y="-393.72668"
           transform="matrix(-1,0,0.54197698,-0.84039333,0,0)" />
        <rect
           transform="matrix(-1,0,0.54197698,-0.84039333,0,0)"
           y="-393.72668"
           x="-613.13098"
           height="20.54443"
           width="66.015404"
           id="rect3099"
           style="fill:#b3b3b3;fill-rule:evenodd;stroke:none" />
        <rect
           style="fill:#b3b3b3;fill-rule:evenodd;stroke:none"
           id="rect3101"
           width="66.015404"
           height="20.54443"
           x="-525.92114"
           y="-393.72668"
           transform="matrix(-1,0,0.54197698,-0.84039333,0,0)" />
        <rect
           transform="matrix(-1,0,0.54197698,-0.84039333,0,0)"
           y="-393.72668"
           x="-438.71133"
           height="20.54443"
           width="66.015404"
           id="rect3103"
           style="fill:#b3b3b3;fill-rule:evenodd;stroke:none" />
        <rect
           style="fill:#b3b3b3;fill-rule:evenodd;stroke:none"
           id="rect3105"
           width="66.015404"
           height="20.54443"
           x="-351.5015"
           y="-393.72668"
           transform="matrix(-1,0,0.54197698,-0.84039333,0,0)" />
        <rect
           transform="matrix(-1,0,0.54197698,-0.84039333,0,0)"
           y="-393.72668"
           x="-874.7605"
           height="20.54443"
           width="66.015404"
           id="rect3107"
           style="fill:#b3b3b3;fill-rule:evenodd;stroke:none" />
      </g>
      <g
         transform="translate(-2.8124987e-8,8.0714311)"
         id="g3138">
        <g
           id="g3024"
           transform="matrix(1,0,0,0.5208057,7.4265137,158.93066)">
          <rect
             transform="scale(-1,-1)"
             y="-587.44873"
             x="-457.47998"
             height="198.24944"
             width="185.71851"
             id="rect3018"
             style="fill:#cccccc;fill-rule:evenodd;stroke:none" />
          <rect
             style="fill:#cccccc;fill-rule:evenodd;stroke:none"
             id="rect3020"
             width="185.71851"
             height="198.24944"
             x="-677.47998"
             y="-587.44873"
             transform="scale(-1,-1)" />
          <rect
             transform="scale(-1,-1)"
             y="-587.44873"
             x="-237.47998"
             height="198.24944"
             width="185.71851"
             id="rect3022"
             style="fill:#cccccc;fill-rule:evenodd;stroke:none" />
        </g>
        <g
           transform="matrix(1,0,0,0.5208057,7.4265137,292.93066)"
           id="g3130">
          <rect
             style="fill:#cccccc;fill-rule:evenodd;stroke:none"
             id="rect3132"
             width="185.71851"
             height="198.24944"
             x="-457.47998"
             y="-587.44873"
             transform="scale(-1,-1)" />
          <rect
             transform="scale(-1,-1)"
             y="-587.44873"
             x="-677.47998"
             height="198.24944"
             width="185.71851"
             id="rect3134"
             style="fill:#cccccc;fill-rule:evenodd;stroke:none" />
          <rect
             style="fill:#cccccc;fill-rule:evenodd;stroke:none"
             id="rect3136"
             width="185.71851"
             height="198.24944"
             x="-237.47998"
             y="-587.44873"
             transform="scale(-1,-1)" />
        </g>
      </g>
      <rect
         style="fill:#8d91d0;fill-rule:evenodd;stroke:none"
         id="rect3223"
         width="626.14502"
         height="244.67081"
         x="-685.11975"
         y="-910.65942"
         transform="scale(-1,-1)" />
    </g>
    <g
       id="g3095"
       transform="matrix(1.3714286,0,0,1.3714286,184.82428,-351.72011)">
      <rect
         style="fill:#333333;fill-rule:evenodd;stroke:none"
         id="rect3247"
         width="700"
         height="1000"
         x="205.2728"
         y="-1026.1812"
         transform="scale(-1,-1)" />
      <rect
         transform="scale(-1,-1)"
         y="-331.89545"
         x="220.98709"
         height="287.14285"
         width="668.57141"
         id="rect3249"
         style="fill:#b3b3b3;fill-rule:evenodd;stroke:none" />
      <rect
         style="fill:#b3b3b3;fill-rule:evenodd;stroke:none"
         id="rect3251"
         width="668.57141"
         height="287.14285"
         x="220.98709"
         y="-631.89545"
         transform="scale(-1,-1)" />
      <rect
         transform="scale(-1,-1)"
         y="-1011.8954"
         x="220.98709"
         height="67.142853"
         width="668.57141"
         id="rect3253"
         style="fill:#b3b3b3;fill-rule:evenodd;stroke:none" />
      <rect
         transform="scale(-1,-1)"
         y="-931.89545"
         x="220.98709"
         height="287.14285"
         width="668.57141"
         id="rect3255"
         style="fill:#b3b3b3;fill-rule:evenodd;stroke:none" />
      <g
         transform="translate(-927.32004,0)"
         id="g3257">
        <rect
           transform="scale(-1,-1)"
           y="-331.89545"
           x="-69.904381"
           height="287.14285"
           width="32.142838"
           id="rect3259"
           style="fill:url(#linearGradient3131);fill-opacity:1;fill-rule:evenodd;stroke:none" />
        <g
           transform="translate(-0.88132424,0)"
           id="g3261">
          <path
             sodipodi:type="arc"
             style="fill:#333333;stroke:none"
             id="path3263"
             sodipodi:cx="80.714287"
             sodipodi:cy="178.07646"
             sodipodi:rx="18.571428"
             sodipodi:ry="18.571428"
             d="m 99.285715,178.07646 c 0,10.25672 -8.314712,18.57143 -18.571428,18.57143 -10.256717,0 -18.571428,-8.31471 -18.571428,-18.57143 0,-10.25671 8.314711,-18.57143 18.571428,-18.57143 10.256716,0 18.571428,8.31472 18.571428,18.57143 z"
             transform="matrix(0.6464466,0,0,0.6464466,2.53681,73.207097)" />
          <path
             sodipodi:type="star"
             style="fill:#cccccc;stroke:none"
             id="path3265"
             sodipodi:sides="3"
             sodipodi:cx="73.571426"
             sodipodi:cy="81.647896"
             sodipodi:r1="21.264252"
             sodipodi:r2="10.632125"
             sodipodi:arg1="0.52359878"
             sodipodi:arg2="1.5707963"
             inkscape:flatsided="false"
             inkscape:rounded="0"
             inkscape:randomized="0"
             d="m 91.986809,92.280022 -18.415382,-10e-7 -18.415383,10e-7 9.207692,-15.948188 9.20769,-15.94819 9.207691,15.948189 z"
             transform="matrix(0,-0.33091648,0.33091648,0,29.454825,212.67002)"
             inkscape:transform-center-x="1.7591739" />
        </g>
      </g>
      <g
         id="g3267"
         transform="matrix(-1,0,0,-1,-183.22555,376.64804)">
        <rect
           style="fill:url(#linearGradient3133);fill-opacity:1;fill-rule:evenodd;stroke:none"
           id="rect3269"
           width="32.142838"
           height="287.14285"
           x="-69.904381"
           y="-331.89545"
           transform="scale(-1,-1)" />
        <g
           id="g3271"
           transform="translate(-0.88132424,0)">
          <path
             transform="matrix(0.6464466,0,0,0.6464466,2.53681,73.207097)"
             d="m 99.285715,178.07646 c 0,10.25672 -8.314712,18.57143 -18.571428,18.57143 -10.256717,0 -18.571428,-8.31471 -18.571428,-18.57143 0,-10.25671 8.314711,-18.57143 18.571428,-18.57143 10.256716,0 18.571428,8.31472 18.571428,18.57143 z"
             sodipodi:ry="18.571428"
             sodipodi:rx="18.571428"
             sodipodi:cy="178.07646"
             sodipodi:cx="80.714287"
             id="path3273"
             style="fill:#333333;stroke:none"
             sodipodi:type="arc" />
          <path
             inkscape:transform-center-x="1.7591739"
             transform="matrix(0,-0.33091648,0.33091648,0,29.454825,212.67002)"
             d="m 91.986809,92.280022 -18.415382,-10e-7 -18.415383,10e-7 9.207692,-15.948188 9.20769,-15.94819 9.207691,15.948189 z"
             inkscape:randomized="0"
             inkscape:rounded="0"
             inkscape:flatsided="false"
             sodipodi:arg2="1.5707963"
             sodipodi:arg1="0.52359878"
             sodipodi:r2="10.632125"
             sodipodi:r1="21.264252"
             sodipodi:cy="81.647896"
             sodipodi:cx="73.571426"
             sodipodi:sides="3"
             id="path3275"
             style="fill:#cccccc;stroke:none"
             sodipodi:type="star" />
        </g>
      </g>
      <rect
         style="fill:#333333;fill-rule:evenodd;stroke:none"
         id="rect3277"
         width="668.57141"
         height="19.285707"
         x="220.98709"
         y="-331.89545"
         transform="scale(-1,-1)" />
      <g
         id="g3279"
         transform="matrix(1,0,0.47319042,0.73671702,-1080.0594,84.843619)">
        <rect
           style="fill:#b3b3b3;fill-rule:evenodd;stroke:none"
           id="rect3281"
           width="66.015404"
           height="20.54443"
           x="-787.55066"
           y="-393.72668"
           transform="matrix(-1,0,0.54197698,-0.84039333,0,0)" />
        <rect
           transform="matrix(-1,0,0.54197698,-0.84039333,0,0)"
           y="-393.72668"
           x="-700.34082"
           height="20.54443"
           width="66.015404"
           id="rect3283"
           style="fill:#b3b3b3;fill-rule:evenodd;stroke:none" />
        <rect
           style="fill:#b3b3b3;fill-rule:evenodd;stroke:none"
           id="rect3285"
           width="66.015404"
           height="20.54443"
           x="-613.13098"
           y="-393.72668"
           transform="matrix(-1,0,0.54197698,-0.84039333,0,0)" />
        <rect
           transform="matrix(-1,0,0.54197698,-0.84039333,0,0)"
           y="-393.72668"
           x="-525.92114"
           height="20.54443"
           width="66.015404"
           id="rect3287"
           style="fill:#b3b3b3;fill-rule:evenodd;stroke:none" />
        <rect
           style="fill:#b3b3b3;fill-rule:evenodd;stroke:none"
           id="rect3289"
           width="66.015404"
           height="20.54443"
           x="-438.71133"
           y="-393.72668"
           transform="matrix(-1,0,0.54197698,-0.84039333,0,0)" />
        <rect
           transform="matrix(-1,0,0.54197698,-0.84039333,0,0)"
           y="-393.72668"
           x="-351.5015"
           height="20.54443"
           width="66.015404"
           id="rect3291"
           style="fill:#b3b3b3;fill-rule:evenodd;stroke:none" />
        <rect
           style="fill:#b3b3b3;fill-rule:evenodd;stroke:none"
           id="rect3293"
           width="66.015404"
           height="20.54443"
           x="-874.7605"
           y="-393.72668"
           transform="matrix(-1,0,0.54197698,-0.84039333,0,0)" />
      </g>
      <g
         id="g3295"
         transform="translate(-927.32004,8.0714311)">
        <g
           transform="matrix(1,0,0,0.5208057,7.4265137,158.93066)"
           id="g3297">
          <rect
             style="fill:#cccccc;fill-rule:evenodd;stroke:none"
             id="rect3299"
             width="185.71851"
             height="198.24944"
             x="-457.47998"
             y="-587.44873"
             transform="scale(-1,-1)" />
          <rect
             transform="scale(-1,-1)"
             y="-587.44873"
             x="-677.47998"
             height="198.24944"
             width="185.71851"
             id="rect3301"
             style="fill:#cccccc;fill-rule:evenodd;stroke:none" />
          <rect
             style="fill:#cccccc;fill-rule:evenodd;stroke:none"
             id="rect3303"
             width="185.71851"
             height="198.24944"
             x="-237.47998"
             y="-587.44873"
             transform="scale(-1,-1)" />
        </g>
        <g
           id="g3305"
           transform="matrix(1,0,0,0.5208057,7.4265137,292.93066)">
          <rect
             transform="scale(-1,-1)"
             y="-587.44873"
             x="-457.47998"
             height="198.24944"
             width="185.71851"
             id="rect3307"
             style="fill:#cccccc;fill-rule:evenodd;stroke:none" />
          <rect
             style="fill:#cccccc;fill-rule:evenodd;stroke:none"
             id="rect3309"
             width="185.71851"
             height="198.24944"
             x="-677.47998"
             y="-587.44873"
             transform="scale(-1,-1)" />
          <rect
             transform="scale(-1,-1)"
             y="-587.44873"
             x="-237.47998"
             height="198.24944"
             width="185.71851"
             id="rect3311"
             style="fill:#cccccc;fill-rule:evenodd;stroke:none" />
        </g>
      </g>
      <rect
         transform="scale(-1,-1)"
         y="-910.65942"
         x="242.20029"
         height="244.67081"
         width="626.14502"
         id="rect3313"
         style="fill:#999999;fill-rule:evenodd;stroke:none" />
    </g>
  </g>
</svg>
